<svg xmlns="http://www.w3.org/2000/svg" version="1.1" xmlns:xlink="http://www.w3.org/1999/xlink" xmlns:svgjs="http://svgjs.dev/svgjs" width="1000" height="1000" viewBox="0 0 1000 1000"><rect width="1000" height="1000" fill="#ffffff"></rect><g transform="matrix(0.7,0,0,0.7,149.57575757575756,345.71501661839613)"><svg viewBox="0 0 396 175" data-background-color="#e83d95" preserveAspectRatio="xMidYMid meet" height="441" width="1000" xmlns="http://www.w3.org/2000/svg" xmlns:xlink="http://www.w3.org/1999/xlink"><g id="tight-bounds" transform="matrix(1,0,0,1,0.2400000000000091,-0.03685749342186284)"><svg viewBox="0 0 395.52 144.0881520043412" height="144.0881520043412" width="395.52"><g><svg viewBox="0 0 395.52 144.0881520043412" height="144.0881520043412" width="395.52"><g><svg viewBox="0 0 395.52 144.0881520043412" height="144.0881520043412" width="395.52"><g id="textblocktransform"><svg viewBox="0 0 395.52 144.0881520043412" height="144.0881520043412" width="395.52" id="textblock"><g><rect width="395.52" height="126.50827095574519" fill="none" stroke-width="8.962371322224001" stroke="#000000" data-fill-palette-color="none" data-stroke-palette-color="tertiary"></rect><rect width="395.52" height="48.56544403109853" y="126.50827095574519" fill="#000000" data-fill-palette-color="tertiary"></rect></g><g><svg viewBox="0 0 395.52 125.50827095574519" height="125.50827095574519" width="395.52"><g transform="matrix(1,0,0,1,23.461705032,23.461705032)"><svg width="348.596589936" viewBox="0 -29.5 202.47999572753906 45.650001525878906" height="78.5848608917452" data-palette-color="#ffffff"><path d="M4.5 0L0 0 0-29.5 4.5-29.5 4.5 0ZM7.5 0L6 0 6-29.5 7.5-29.5 7.5 0ZM10.5 0L9 0 9-29.5 10.5-29.5 10.5 0ZM13.5 0L12 0 12-29.5 13.5-29.5 13.5 0ZM24 0L19.5 0 19.5-29.5 24-29.5 24 0ZM15.2 16L11.2 10.15 10.25 11.15 10.25 15.95 8.9 15.95 8.9 4.35 10.45 4.35 10.45 4.5Q10.35 4.6 10.3 4.75L10.3 4.75Q10.25 4.85 10.25 5.2L10.25 5.2 10.25 9.7 15.1 4.3Q15.55 4.35 16.05 4.35L16.05 4.35 16.55 4.35 12.15 9.35 16.85 15.95 15.2 16ZM30 0L25.5 0 25.5-29.5 30-29.5 30 0ZM33 0L31.5 0 31.5-29.5 33-29.5 33 0ZM36 0L34.5 0 34.5-29.5 36-29.5 36 0ZM43.5 0L42 0 42-29.5 43.5-29.5 43.5 0ZM49.5 0L45 0 45-29.5 49.5-29.5 49.5 0ZM41.25 15.95L40.1 12.55 36.35 12.55 35.2 15.95 33.9 15.95 38.15 4.15 38.3 4.15 42.6 15.95 41.25 15.95ZM36.7 11.55L39.75 11.55 38.25 7.15 36.7 11.55ZM52.5 0L51 0 51-29.5 52.5-29.5 52.5 0ZM55.5 0L54 0 54-29.5 55.5-29.5 55.5 0ZM61.5 0L57 0 57-29.5 61.5-29.5 61.5 0ZM67.5 0L63 0 63-29.5 67.5-29.5 67.5 0ZM75 0L73.5 0 73.5-29.5 75-29.5 75 0ZM62.95 15.95L62.95 5.5 59.7 5.5 59.7 4.35 67.7 4.35 67.7 5.5 64.3 5.5 64.3 15.95 62.95 15.95ZM80.99 0L76.49 0 76.49-29.5 80.99-29.5 80.99 0ZM83.99 0L82.49 0 82.49-29.5 83.99-29.5 83.99 0ZM86.99 0L85.49 0 85.49-29.5 86.99-29.5 86.99 0ZM94.49 0L92.99 0 92.99-29.5 94.49-29.5 94.49 0ZM100.49 0L95.99 0 95.99-29.5 100.49-29.5 100.49 0ZM92.24 15.95L91.09 12.55 87.34 12.55 86.19 15.95 84.89 15.95 89.14 4.15 89.29 4.15 93.59 15.95 92.24 15.95ZM87.69 11.55L90.74 11.55 89.24 7.15 87.69 11.55ZM106.49 0L101.99 0 101.99-29.5 106.49-29.5 106.49 0ZM113.99 0L112.49 0 112.49-29.5 113.99-29.5 113.99 0ZM119.99 0L115.49 0 115.49-29.5 119.99-29.5 119.99 0ZM122.99 0L121.49 0 121.49-29.5 122.99-29.5 122.99 0ZM125.99 0L124.49 0 124.49-29.5 125.99-29.5 125.99 0ZM114.19 15.95L114.19 11.4 110.59 4.35 112.09 4.35 114.94 10 117.49 4.35 118.89 4.35 115.59 11.4 115.59 15.95 114.19 15.95ZM131.99 0L127.49 0 127.49-29.5 131.99-29.5 131.99 0ZM134.99 0L133.49 0 133.49-29.5 134.99-29.5 134.99 0ZM140.99 0L136.49 0 136.49-29.5 140.99-29.5 140.99 0ZM143.99 0L142.49 0 142.49-29.5 143.99-29.5 143.99 0ZM151.49 0L149.99 0 149.99-29.5 151.49-29.5 151.49 0ZM140.24 16.15L140.24 16.15Q138.24 16.15 137.19 14.6L137.19 14.6Q136.09 13.05 136.09 10.2L136.09 10.2Q136.09 7.45 137.19 5.85L137.19 5.85Q138.29 4.3 140.24 4.3L140.24 4.3Q142.19 4.3 143.29 5.85L143.29 5.85Q144.39 7.45 144.39 10.2L144.39 10.2Q144.39 13.05 143.29 14.6L143.29 14.6Q142.24 16.15 140.24 16.15ZM140.24 15L140.24 15Q141.59 15 142.29 13.8L142.29 13.8Q143.04 12.55 143.04 10.2L143.04 10.2Q143.04 8 142.29 6.7L142.29 6.7Q141.54 5.45 140.24 5.45L140.24 5.45Q138.94 5.45 138.19 6.7L138.19 6.7Q137.44 8 137.44 10.2L137.44 10.2Q137.44 12.55 138.14 13.8L138.14 13.8Q138.89 15 140.24 15ZM157.49 0L152.99 0 152.99-29.5 157.49-29.5 157.49 0ZM160.49 0L158.99 0 158.99-29.5 160.49-29.5 160.49 0ZM166.49 0L161.99 0 161.99-29.5 166.49-29.5 166.49 0ZM169.49 0L167.99 0 167.99-29.5 169.49-29.5 169.49 0ZM176.99 0L175.49 0 175.49-29.5 176.99-29.5 176.99 0ZM165.74 16.15L165.74 16.15Q163.74 16.15 162.69 14.6L162.69 14.6Q161.59 13.05 161.59 10.2L161.59 10.2Q161.59 7.45 162.69 5.85L162.69 5.85Q163.79 4.3 165.74 4.3L165.74 4.3Q167.69 4.3 168.79 5.85L168.79 5.85Q169.89 7.45 169.89 10.2L169.89 10.2Q169.89 13.05 168.79 14.6L168.79 14.6Q167.74 16.15 165.74 16.15ZM165.74 15L165.74 15Q167.09 15 167.79 13.8L167.79 13.8Q168.54 12.55 168.54 10.2L168.54 10.2Q168.54 8 167.79 6.7L167.79 6.7Q167.04 5.45 165.74 5.45L165.74 5.45Q164.44 5.45 163.69 6.7L163.69 6.7Q162.94 8 162.94 10.2L162.94 10.2Q162.94 12.55 163.64 13.8L163.64 13.8Q164.39 15 165.74 15ZM179.98 0L178.48 0 178.48-29.5 179.98-29.5 179.98 0ZM182.98 0L181.48 0 181.48-29.5 182.98-29.5 182.98 0ZM188.98 0L184.48 0 184.48-29.5 188.98-29.5 188.98 0ZM191.98 0L190.48 0 190.48-29.5 191.98-29.5 191.98 0ZM202.48 0L197.98 0 197.98-29.5 202.48-29.5 202.48 0ZM187.53 15.95L187.53 4.35 188.78 4.35 193.63 12.95 193.63 4.35 195.08 4.35 195.08 4.5Q194.93 4.6 194.93 4.75L194.93 4.75Q194.88 4.85 194.88 5.2L194.88 5.2 194.88 15.95 193.88 15.95 188.73 6.85 188.73 15.95 187.53 15.95Z" opacity="1" transform="matrix(1,0,0,1,0,0)" fill="#000000" class="wordmark-text-0" data-fill-palette-color="primary" id="text-0"></path></svg></g></svg></g><g transform="matrix(1,0,0,1,75.54432,125.50827095574519)"><svg viewBox="0 0 244.43135999999998 18.579881048596" height="18.579881048596" width="244.43135999999998"><g transform="matrix(1,0,0,1,20,3.2)"><svg width="204.43135999999998" viewBox="5 -28.75 482.5199890136719 28.75" height="12.179881048595998" data-palette-color="#e83d95"><path d="M5 0L5-28.75 21-28.75 21-23.1 11.3-23.1 11.3-17.2 21-17.2 21-11.5 11.3-11.5 11.3-5.85 21-5.85 21 0 5 0ZM33.8 0L39.45-3.4 39.45-12.15 34.75-14.35 39.45-16.6 39.45-25.3 33.8-28.75 23.45-28.75 23.45-23.1 33.15-23.1 33.15-17.2 23.45-17.2 23.45-11.5 33.15-11.5 33.15-5.85 23.45-5.85 23.45 0 33.8 0ZM48.45-28.75L48.45-28.75 64.45-28.75 64.45-22.85 54.75-22.85 54.75-17.2 64.45-17.2 64.45-11.5 54.75-11.5 54.75-5.65 64.25-5.65 64.25 0 48.45 0 48.45-28.75ZM66.9-5.65L66.9-5.65 66.9 0 82.9 0 82.9-5.65 66.9-5.65ZM82.9-22.85L82.9-22.85 82.9-28.75 66.7-28.75 66.7-22.85 82.9-22.85ZM74.8-11.5L74.8-11.5 74.8-17.2 66.7-17.2 66.7-11.5 74.8-11.5ZM120.35-26.9L105.95-13.15 105.95 0 100.3 0 100.3-13.15 85.9-26.9 91.6-28.75 103.1-17.8 103.1-17.8 114.7-28.75 120.35-26.9ZM123.94-25.3L123.94-25.3 129.79-28.75 140.14-28.75 140.14-23.1 130.24-23.1 130.24-5.85 139.94-5.85 139.94 0 129.79 0 123.94-3.4 123.94-25.3ZM158.39-25.3L158.39-25.3 152.74-28.75 142.39-28.75 142.39-23.1 152.09-23.1 152.09-5.85 142.39-5.85 142.39 0 152.74 0 158.39-3.4 158.39-25.3ZM167.39 0L167.39-28.75 173.09-28.75 183.39-19.05 183.39-11.5 173.69-20.85 173.69 0 167.39 0ZM185.64-17.2L195.54-8.1 195.54-28.75 201.84-28.75 201.84 0 195.94 0 185.64-9.9 185.64-17.2ZM211.84 0L211.84-28.75 227.84-28.75 227.84-23.1 218.14-23.1 218.14-5.85 227.84-5.85 227.84 0 211.84 0ZM246.29-3.4L246.29-25.3 240.64-28.75 230.29-28.75 230.29-23.1 239.99-23.1 239.99-5.85 230.29-5.85 230.29 0 240.64 0 246.29-3.4ZM270.28 0L270.28-28.75 286.28-28.75 286.28-23.1 276.58-23.1 276.58-5.85 286.28-5.85 286.28 0 270.28 0ZM304.73-3.4L304.73-25.3 299.08-28.75 288.73-28.75 288.73-23.1 298.43-23.1 298.43-5.85 288.73-5.85 288.73 0 299.08 0 304.73-3.4ZM313.73-28.75L313.73-28.75 329.73-28.75 329.73-22.85 320.03-22.85 320.03-17.2 329.73-17.2 329.73-11.5 320.03-11.5 320.03-5.65 329.53-5.65 329.53 0 313.73 0 313.73-28.75ZM332.18-5.65L332.18-5.65 332.18 0 348.18 0 348.18-5.65 332.18-5.65ZM348.18-22.85L348.18-22.85 348.18-28.75 331.98-28.75 331.98-22.85 348.18-22.85ZM340.08-11.5L340.08-11.5 340.08-17.2 331.98-17.2 331.98-11.5 340.08-11.5ZM353.18-14.75L353.18-25.3 358.88-28.75 369.18-28.75 369.18-22.85 359.28-22.85 359.28-17.2 369.18-17.2 369.18-11.35 358.88-11.35 353.18-14.75ZM387.63-3.4L387.63-13.75 381.73-17.2 371.43-17.2 371.43-11.35 381.33-11.35 381.33-5.65 371.63-5.65 371.63 0 381.73 0 387.63-3.4ZM353.18-9.1L359.48-9.1 359.48-5.65 369.18-5.65 369.18 0 359.03 0 353.18-3.4 353.18-9.1ZM381.33-19.45L387.63-19.45 387.63-25.3 381.73-28.75 371.43-28.75 371.43-22.85 381.33-22.85 381.33-19.45ZM395.13-28.75L395.13-28.75 401.43-28.75 401.43 0 395.13 0 395.13-28.75ZM409.42-3.4L409.42-25.3 415.27-28.75 425.62-28.75 425.62-22.85 415.92-22.85 415.92-5.65 425.42-5.65 425.42 0 415.27 0 409.42-3.4ZM437.57-19.45L444.07-19.45 444.07-25.3 438.22-28.75 427.87-28.75 427.87-22.85 437.57-22.85 437.57-19.45ZM444.07-3.4L444.07-17.2 427.87-17.2 427.87-11.5 437.57-11.5 437.57-5.65 428.07-5.65 428.07 0 438.22 0 444.07-3.4ZM453.07 0L453.07-28.75 458.77-28.75 469.07-19.05 469.07-11.5 459.37-20.85 459.37 0 453.07 0ZM471.32-17.2L481.22-8.1 481.22-28.75 487.52-28.75 487.52 0 481.62 0 471.32-9.9 471.32-17.2Z" opacity="1" transform="matrix(1,0,0,1,0,0)" fill="#ffffff" class="slogan-text-1" data-fill-palette-color="quaternary" id="text-1"></path></svg></g></svg></g></svg></g></svg></g></svg></g><defs></defs></svg><rect width="395.52" height="144.0881520043412" fill="none" stroke="none" visibility="hidden"></rect></g></svg></g></svg>